Coordinates
version=1
nRows=29
nColumns=24
inDegrees=yes

Units are S.I. units (second, meters, Newtons, ...)
Angles are in degrees.

endheader
time	pelvis_tilt	pelvis_list	pelvis_rotation	pelvis_tx	pelvis_ty	pelvis_tz	hip_flexion_r	hip_adduction_r	hip_rotation_r	knee_angle_r	ankle_angle_r	subtalar_angle_r	mtp_angle_r	hip_flexion_l	hip_adduction_l	hip_rotation_l	knee_angle_l	ankle_angle_l	subtalar_angle_l	mtp_angle_l	lumbar_extension	lumbar_bending	lumbar_rotation
      4.73000000	    -17.44252873	      6.11134039	     -2.38082317	     -0.92125674	     -0.01946508	     -0.37343234	     33.79696114	     -5.69253538	     -0.71166924	    -61.94192853	     -0.26572811	    -10.59407647	     23.27339667	     25.82603097	      7.34650962	     -9.17602305	    -22.84440997	      7.14632769	     -2.17126292	      6.28627634	     20.95862597	     -6.84816892	    -11.94290938
      4.73500000	    -17.45262568	      5.76169291	     -2.12804534	     -0.91500244	     -0.01844697	     -0.37398933	     34.32012327	     -5.44195409	     -1.30563714	    -61.16013358	      0.25586336	    -10.72618391	     22.64992823	     25.09470414	      7.19982388	     -8.81250234	    -22.35189079	      7.21662299	     -2.02951194	      6.14052761	     20.94660795	     -6.60677783	    -12.46879138
      4.74000000	    -17.49448608	      5.39490364	     -1.88525880	     -0.90877346	     -0.01749371	     -0.37453029	     34.85562484	     -5.18189222	     -1.90382904	    -60.29248673	      0.72803924	    -10.79792676	     22.15860405	     24.41509281	      7.01039725	     -8.52353063	    -21.88189869	      7.26409632	     -1.87256819	      6.02043111	     20.97033323	     -6.33716237	    -12.95154764
      4.74500000	    -17.52613142	      5.04945466	     -1.63800435	     -0.90255729	     -0.01660807	     -0.37505140	     35.36713087	     -4.95688733	     -2.51183544	    -59.36849769	      1.14400048	    -10.90862082	     21.64700060	     23.72209732	      6.83716904	     -8.21099481	    -21.40078290	      7.33379400	     -1.69610316	      5.89395300	     20.98480837	     -6.09835582	    -13.44888610
      4.75000000	    -17.48808752	      4.76684000	     -1.38612776	     -0.89633097	     -0.01573435	     -0.37552316	     35.80316703	     -4.81596027	     -3.14238615	    -58.43241232	      1.51214679	    -10.98839199	     20.58652639	     22.93915552	      6.72604321	     -7.87314867	    -20.89150386	      7.41286611	     -1.46796219	      5.61987017	     20.93105517	     -5.93336163	    -13.89610793
      4.75500000	    -17.57882263	      4.44472751	     -1.15546325	     -0.89018228	     -0.01505549	     -0.37596083	     36.35272631	     -4.60395431	     -3.70126933	    -57.38699209	      1.87532468	    -11.02055056	     20.18349459	     22.33990777	      6.53326963	     -7.67470081	    -20.44309089	      7.48467522	     -1.24439219	      5.54135848	     21.00595529	     -5.71217323	    -14.39940947
      4.76000000	    -17.63398209	      4.12551321	     -0.91817145	     -0.88402269	     -0.01437620	     -0.37639615	     36.83788514	     -4.42425151	     -4.31131390	    -56.27041890	      2.17357968	    -11.05276080	     19.81406266	     21.70027485	      6.34092435	     -7.47076786	    -19.98511811	      7.52943890	     -1.02425143	      5.46000059	     21.04520512	     -5.50114727	    -14.84768238
      4.76500000	    -17.67632334	      3.83016564	     -0.67888795	     -0.87787368	     -0.01375986	     -0.37681443	     37.29415927	     -4.27564684	     -4.91737549	    -55.10363983	      2.44149648	    -11.06668984	     19.43631226	     21.04915154	      6.16435166	     -7.27532272	    -19.52455205	      7.58016971	     -0.76885286	      5.38693609	     21.07017061	     -5.31692010	    -15.29814732
      4.77000000	    -17.71863730	      3.55608902	     -0.45214441	     -0.87173385	     -0.01321987	     -0.37716932	     37.73665627	     -4.14204754	     -5.50607614	    -53.88771875	      2.68634391	    -11.03607656	     19.06672905	     20.39798352	      5.99257853	     -7.10792988	    -19.05755779	      7.63422160	     -0.49401931	      5.32564760	     21.09566855	     -5.15640620	    -15.72341942
      4.77500000	    -17.75581970	      3.30302192	     -0.22378250	     -0.86558887	     -0.01273064	     -0.37753872	     38.14807529	     -4.03344824	     -6.08016471	    -52.60836988	      2.90549351	    -10.96795753	     18.70086779	     19.74825595	      5.83508351	     -6.96724050	    -18.59941798	      7.67618412	     -0.19398532	      5.27789618	     21.11934906	     -5.00916153	    -16.13256590
      4.78000000	    -17.79327981	      3.06426840	     -0.00705073	     -0.85946135	     -0.01231661	     -0.37783043	     38.54501033	     -3.93131040	     -6.64332658	    -51.28337184	      3.10525598	    -10.85148228	     18.35936592	     19.10043777	      5.67512790	     -6.85402434	    -18.13705837	      7.71229168	      0.11976654	      5.24502927	     21.13707533	     -4.88441663	    -16.51878994
      4.78500000	    -17.85275341	      2.84131782	      0.17697002	     -0.85331777	     -0.01201629	     -0.37812487	     38.94994937	     -3.82927497	     -7.16880130	    -49.90939320	      3.29504525	    -10.67202172	     18.09874745	     18.47084142	      5.51990031	     -6.77816722	    -17.66237562	      7.76811869	      0.41202778	      5.22934757	     21.18377661	     -4.75132448	    -16.86227452
      4.79000000	    -17.95232142	      2.67742639	      0.30756605	     -0.84716771	     -0.01182664	     -0.37828232	     39.39401546	     -3.73184205	     -7.58423282	    -48.49466907	      3.44421437	    -10.45147534	     17.94162678	     17.87107305	      5.40104040	     -6.68068658	    -17.16645241	      7.79099923	      0.70321382	      5.22015309	     21.28360448	     -4.66559724	    -17.08565074
      4.79500000	    -17.89841869	      2.43150613	      0.59304596	     -0.84106355	     -0.01148318	     -0.37860236	     39.59598189	     -3.68063526	     -8.24679609	    -46.98961531	      3.56075504	    -10.26697550	     17.64263483	     17.15153875	      5.22505327	     -6.60933254	    -16.73746437	      7.82433359	      1.12546152	      5.24312992	     21.18339445	     -4.56835515	    -17.56238740
      4.80000000	    -17.91718278	      2.24873239	      0.75514302	     -0.83490557	     -0.01131399	     -0.37876110	     39.88095054	     -3.59296476	     -8.73137888	    -45.45452399	      3.67140261	     -9.96990528	     17.41689504	     16.48113972	      5.07792099	     -6.56126084	    -16.26518161	      7.84333256	      1.46495959	      5.25790412	     21.18476511	     -4.47894333	    -17.84578424
      4.80500000	    -18.01837262	      2.09458751	      0.88379004	     -0.82878046	     -0.01130867	     -0.37888621	     40.24489481	     -3.49544597	     -9.11553017	    -43.87939635	      3.76037428	     -9.62133646	     17.30788275	     15.91048244	      4.95242726	     -6.54748392	    -15.80668347	      7.83440492	      1.72823808	      5.25812543	     21.26909725	     -4.39938589	    -18.03176918
      4.81000000	    -17.98457548	      1.90796798	      1.09180869	     -0.82260806	     -0.01121489	     -0.37906650	     40.41418261	     -3.43998938	     -9.67573164	    -42.25543788	      3.81266689	     -9.30896040	     17.16436212	     15.19124229	      4.80016865	     -6.51019404	    -15.34255778	      7.87947199	      2.13402143	      5.31424510	     21.20383907	     -4.33057773	    -18.40129563
      4.81500000	    -18.08593410	      1.78032493	      1.18345778	     -0.81645144	     -0.01134612	     -0.37910334	     40.73288966	     -3.33198282	    -10.00362566	    -40.59749611	      3.85094171	     -8.91797513	     17.08970457	     14.61736813	      4.68516596	     -6.50194530	    -14.88259822	      7.86755830	      2.37866304	      5.32022938	     21.29055821	     -4.26657312	    -18.52493882
      4.82000000	    -18.01760735	      1.60066736	      1.38128467	     -0.81025129	     -0.01133252	     -0.37923769	     40.80871143	     -3.26476605	    -10.54374790	    -38.88472830	      3.86517326	     -8.56617250	     16.99365423	     13.86576962	      4.52583598	     -6.48866266	    -14.42532398	      7.90285384	      2.79238320	      5.40115328	     21.18580915	     -4.20057988	    -18.86256197
      4.82500000	    -18.01226263	      1.45500647	      1.50006404	     -0.80403641	     -0.01146256	     -0.37925661	     40.94481887	     -3.15715710	    -10.94889940	    -37.14377104	      3.86080290	     -8.18119031	     16.91993449	     13.18119217	      4.38341583	     -6.50558276	    -13.97228924	      7.90606516	      3.10564173	      5.46736672	     21.15470112	     -4.13762921	    -19.05960162
      4.83000000	    -18.03616883	      1.32145985	      1.61740560	     -0.79780491	     -0.01169476	     -0.37928968	     41.09375844	     -3.05504085	    -11.32789939	    -35.38237310	      3.83865069	     -7.79345911	     16.86062564	     12.53401156	      4.25535727	     -6.53183739	    -13.53042670	      7.90890513	      3.39864255	      5.53193797	     21.15342729	     -4.07518083	    -19.23580817
      4.83500000	    -18.05754899	      1.18864421	      1.72364741	     -0.79155685	     -0.01198619	     -0.37927832	     41.21954635	     -2.94147196	    -11.70449309	    -33.59816636	      3.79686571	     -7.40340907	     16.80789968	     11.89645672	      4.12112943	     -6.56912753	    -13.11409442	      7.91254066	      3.68147370	      5.59743391	     21.15304507	     -4.01460375	    -19.39615014
      4.84000000	    -18.07387803	      1.05925307	      1.82146315	     -0.78527451	     -0.01233833	     -0.37924176	     41.31928435	     -2.81883502	    -12.06461821	    -31.79636664	      3.74498961	     -7.02163886	     16.75809091	     11.25985527	      3.98560814	     -6.61284890	    -12.71405930	      7.92079372	      3.96263590	      5.66944463	     21.14580278	     -3.95383053	    -19.54946150
      4.84500000	    -18.07956967	      0.92767357	      1.92231744	     -0.77897495	     -0.01274089	     -0.37919136	     41.38834571	     -2.69078611	    -12.42211756	    -29.98401219	      3.68160707	     -6.64564397	     16.71193761	     10.62644446	      3.84457814	     -6.66882321	    -12.34103437	      7.93461003	      4.24394008	      5.75245581	     21.12684421	     -3.89163444	    -19.69701222
      4.85000000	    -18.07044938	      0.79818093	      2.01955439	     -0.77264957	     -0.01319617	     -0.37912200	     41.42404806	     -2.55398530	    -12.75061206	    -28.16794699	      3.61944384	     -6.27014463	     16.67878853	      9.99176155	      3.70148102	     -6.73284079	    -11.99888106	      7.96018645	      4.52614258	      5.85635325	     21.09470841	     -3.82878075	    -19.84647826
      4.85500000	    -18.08762157	      0.66557166	      2.10472934	     -0.76627755	     -0.01373944	     -0.37903339	     41.48199328	     -2.41225452	    -13.11762619	    -26.37157971	      3.52568455	     -5.89044344	     16.65691962	      9.39518746	      3.55221982	     -6.81101843	    -11.68066179	      7.98580413	      4.78789878	      5.94898242	     21.09586141	     -3.75650145	    -19.96839472
      4.86000000	    -18.13370678	      0.53468211	      2.17201017	     -0.75988442	     -0.01436971	     -0.37894131	     41.57509723	     -2.26744461	    -13.51125541	    -24.61386333	      3.38163624	     -5.49834116	     16.64104108	      8.84130437	      3.40395686	     -6.89306836	    -11.38843975	      8.01307048	      5.02404759	      6.01543315	     21.13171732	     -3.67253219	    -20.04919018
      4.86500000	    -18.12243121	      0.38754445	      2.25974610	     -0.75343243	     -0.01500267	     -0.37881453	     41.57977550	     -2.10778004	    -13.89144545	    -22.86056427	      3.28728360	     -5.08529402	     16.67513035	      8.24378858	      3.22884452	     -6.97605374	    -11.13658181	      8.06505847	      5.31019902	      6.11144515	     21.10739830	     -3.58751499	    -20.18384771
      4.87000000	    -18.18528274	      0.25296740	      2.30593335	     -0.74697685	     -0.01576532	     -0.37865115	     41.69323818	     -1.94437688	    -14.30614653	    -21.19180440	      3.09775116	     -4.65831239	     16.70342139	      7.73704613	      3.06626171	     -7.05542541	    -10.90961682	      8.10420371	      5.52500742	      6.16545693	     21.16778590	     -3.49302278	    -20.23079236
